<?xml version="1.0" standalone="no"?>
<!DOCTYPE svg PUBLIC "-//W3C//DTD SVG 20010904//EN"
 "http://www.w3.org/TR/2001/REC-SVG-20010904/DTD/svg10.dtd">
<svg version="1.0" xmlns="http://www.w3.org/2000/svg"
 width="480.000000pt" height="480.000000pt" viewBox="0 0 480.000000 480.000000"
 preserveAspectRatio="xMidYMid meet">

<g transform="translate(0.000000,480.000000) scale(0.100000,-0.100000)"
fill="#000000" stroke="none">
<path d="M1750 3251 c0 -96 2 -110 18 -115 9 -3 56 -12 105 -22 l87 -17 0
-697 0 -697 -87 -17 c-49 -10 -96 -19 -105 -22 -16 -5 -18 -19 -18 -115 l0
-110 568 4 c635 4 633 4 788 77 190 91 282 242 283 467 2 218 -107 377 -296
433 -24 7 -43 16 -43 19 0 3 24 19 54 34 75 39 139 106 178 184 27 55 33 79
36 156 13 268 -125 437 -423 519 -77 21 -101 22 -612 26 l-533 3 0 -110z
m1025 -202 c116 -36 166 -109 166 -244 0 -112 -50 -188 -150 -227 -49 -18 -82
-22 -258 -26 l-203 -4 0 261 0 261 189 0 c162 0 198 -3 256 -21z m110 -786
c90 -48 128 -125 129 -258 1 -142 -42 -210 -159 -254 -51 -19 -77 -21 -290
-21 l-235 0 0 281 0 280 258 -3 c241 -3 260 -4 297 -25z"/>
</g>
</svg>
